<svg xmlns="http://www.w3.org/2000/svg" viewBox="0 -5.801 117.387 75.56">
  <defs/>
  <path d="M9.18 21.727l-.03 32.13h5.682l.04-36.311L35.551 2.35l20.773 15.263.031 36.244h5.684l-.041-32.077 5.744 4.223 3.365-4.579L35.551-4.703 0 21.424l3.364 4.579z"/>
  <circle cx="99.797" cy="-.246" r="4.43"/>
  <path d="M102.655 22.101l5.693 4.322c.387.293.845.437 1.294.437.647 0 1.285-.291 1.708-.848.714-.941.531-2.284-.41-3l-8.285-6.292v5.381zM95.386 31.192c-1.45-1.002-2.465-1.705-2.997-2.52l-8.228 21.396c-.544 1.376.128 2.932 1.503 3.476.324.129.656.188.985.188 1.066 0 2.074-.642 2.49-1.69l7.649-19.928-.193-.125-1.209-.797z"/>
  <path d="M111.608 35.618c-.146-.598-.541-1.164-1.036-1.525l-8.987-7V9.51c.048-2.127-.668-3.922-3.475-4.303-.133-.018-.267-.026-.399-.026-1.426 0-2.995.96-4.039 2.079l-7.47 7.388c-.396.397-.636.961-.636 1.522v8.816c0 1.184.958 2.143 2.142 2.143 1.182 0 2.141-.959 2.141-2.143v-7.921l3.17-3.135.05 13.659c.195.867 1.334 1.621 3.159 2.883l1.86 1.248 8.562 6.148 3.462 13.835c.305 1.217 1.396 2.029 2.596 2.029.216 0 .435-.026.65-.081 1.435-.357 2.307-1.81 1.949-3.247l-3.699-14.786zM75.708-4.038c-.781-.78-2.047-.781-2.828 0s-.781 2.047 0 2.829l3.685 3.683H66.017c-1.104 0-2 .896-2 2s.896 2 2 2h10.547l-3.685 3.685c-.781.781-.781 2.047 0 2.828.391.391.902.586 1.414.586s1.023-.195 1.414-.586l7.099-7.098c.75-.758.785-2.078.001-2.83l-7.099-7.097z"/>
</svg>