<?xml version="1.0" encoding="utf-8"?>
<!-- Generator: Adobe Illustrator 22.1.0, SVG Export Plug-In . SVG Version: 6.00 Build 0)  -->
<svg version="1.1" id="Layer_1" xmlns="http://www.w3.org/2000/svg" xmlns:xlink="http://www.w3.org/1999/xlink" x="0px" y="0px"
	 viewBox="0 0 500 500" style="enable-background:new 0 0 500 500;" xml:space="preserve">
<g>
	<path d="M481.1,154.8c-12.7-30.6-31.2-58.1-54.3-81.1s-50.6-41.6-81.2-54.2C316.1,7.3,283.9,0.5,250,0.5s-66.1,6.7-95.6,18.9
		c-30.6,12.7-58.1,31.2-81.2,54.2c-23,23-41.6,50.5-54.3,81.1C6.7,184.2,0,216.4,0,250.3s6.7,66.1,18.9,95.5
		c12.7,30.5,31.2,58,54.3,81.1c23,23,50.6,41.6,81.2,54.2c29.5,12.2,61.8,18.9,95.6,18.9s66.1-6.7,95.6-18.9
		c30.6-12.7,58.1-31.2,81.2-54.2c23-23,41.6-50.5,54.3-81.1c12.2-29.4,18.9-61.7,18.9-95.5C500,216.4,493.3,184.2,481.1,154.8z
		 M474.4,343.1c-12.3,29.7-30.4,56.4-52.7,78.8c-22.4,22.4-49.1,40.4-78.8,52.7c-28.6,11.8-59.9,18.4-92.8,18.4s-64.2-6.5-92.8-18.4
		c-29.7-12.3-56.4-30.3-78.8-52.7s-40.4-49.1-52.7-78.8c-11.9-28.6-18.4-59.9-18.4-92.8s6.5-64.2,18.4-92.8
		C37.9,127.8,56,101,78.4,78.7c22.4-22.4,49.1-40.4,78.8-52.7C185.8,14.2,217.1,7.6,250,7.6s64.2,6.5,92.8,18.4
		c29.7,12.3,56.4,30.3,78.8,52.7s40.4,49.1,52.7,78.8c11.9,28.6,18.4,59.9,18.4,92.8C492.8,283.1,486.2,314.5,474.4,343.1z"/>
	<path d="M332.1,430.4c-28,3.1-54.9,4.6-82.1,4.6c-27.3,0-54.2-1.5-82.1-4.6c-23.6-2.6-44.3-6-59.7-8.6l-0.2,0l0.2,0.1
		c19.7,15.4,41.8,27.4,65.4,35.7c24.5,8.5,50.2,12.9,76.5,12.9s52-4.3,76.5-12.9c23.7-8.3,45.7-20.3,65.4-35.7l0.2-0.1l-0.2,0
		C376.5,424.4,355.8,427.7,332.1,430.4z"/>
	<path d="M459.9,160.7c-5.7-13.2-12.8-25.9-21-37.9c-8.1-11.8-17.5-22.9-27.8-33s-21.6-19.2-33.7-27.2c-12.2-8-25.2-15-38.7-20.5
		c-28.1-11.6-57.9-17.5-88.7-17.5s-60.6,5.9-88.7,17.5c-13.5,5.6-26.5,12.5-38.7,20.5c-12.1,8-23.4,17.1-33.7,27.2
		s-19.7,21.2-27.8,33c-8.2,11.9-15.3,24.7-21,37.9c-11.9,27.5-17.9,56.7-17.9,86.8c0,16.2,1.8,32.4,5.3,48
		c3.4,15.3,8.5,30.2,15.2,44.4c6.5,14,14.5,27.3,23.9,39.7c9.3,12.3,19.9,23.7,31.5,33.9l0,0l0.9,0.2c0.4,0.1,0.6,0.1,0.8,0.1
		c0,0,0.1,0,0.1,0c0.1,0,0.1,0,0.2,0v0c0.5,0.1,1.5,0.2,2.8,0.5c18.6,3.2,40.9,6.9,65.7,9.7c27.7,3.1,54.3,4.6,81.4,4.6
		s53.8-1.5,81.4-4.6c24.8-2.8,47.1-6.5,65.7-9.7c1.2-0.2,2-0.4,2.5-0.4l0,0c0,0,0,0,0,0l0,0c0,0,0,0,0.1,0c0,0,0.1,0,0.2,0l2-0.4h0
		l0,0c11.6-10.2,22.2-21.6,31.5-33.9c9.3-12.4,17.4-25.8,23.9-39.7c6.6-14.2,11.7-29.2,15.2-44.4c3.5-15.7,5.3-31.8,5.3-48
		C477.8,217.4,471.8,188.2,459.9,160.7z M186.9,101.2c20-8.3,41.2-12.5,63.1-12.5s43.1,4.2,63.1,12.5c19.3,8,36.6,19.4,51.5,34
		c14.9,14.6,26.6,31.5,34.8,50.4c8.5,19.6,12.7,40.3,12.7,61.8s-4.3,42.2-12.7,61.8c-8.2,18.9-19.9,35.9-34.8,50.4
		c-14.9,14.6-32.2,26-51.5,34c-20,8.3-41.2,12.5-63.1,12.5s-43.1-4.2-63.1-12.5c-19.3-8-36.6-19.4-51.5-34
		c-14.9-14.6-26.6-31.5-34.8-50.4c-8.5-19.6-12.7-40.3-12.7-61.8s4.3-42.2,12.7-61.8c8.2-18.9,19.9-35.9,34.8-50.4
		S167.6,109.2,186.9,101.2z"/>
</g>
</svg>
