<svg version="1.1" id="Layer_1" xmlns="http://www.w3.org/2000/svg" xmlns:xlink="http://www.w3.org/1999/xlink" x="0px" y="0px"
	 viewBox="0 0 361.9 120.5" style="enable-background:new 0 0 361.9 120.5;" xml:space="preserve">
<style type="text/css">
	.st0{fill:#000;}
	.st1{fill:#F79727;}
</style>
<g>
	<path class="st0" d="M307.3,39.6c-1.6,0-3,0.3-4.3,0.7c-2.8,1-5.2,3-7.1,5.9c-2.6,4-3.9,8.8-3.9,14.4c0,2.2,0.2,4.4,0.6,6.4
		c0.2,1.1,0.6,2.1,0.9,3.1c0.6,1.6,1.3,3.1,2.2,4.5c2.8,4.3,6.7,6.4,11.5,6.4h11.2c3.5,0,6.3-1.3,8.4-3.9c1.5-2,2.3-4.3,2.6-7
		c0.1-0.6,0.1-1.1,0.1-1.8c0-0.5,0-0.9-0.1-1.4c-0.2-2.9-1-5.3-2.6-7.4c-2.1-2.6-4.8-3.9-8.4-3.9h-6v8.9h4.5c1,0,1.8,0.4,2.3,1
		c0.3,0.4,0.5,0.8,0.6,1.3c0.1,0.4,0.1,0.8,0.1,1.3c0,0.6-0.1,1.2-0.3,1.8c-0.2,0.3-0.4,0.6-0.6,0.9c-0.5,0.8-1.2,1.2-2.2,1.2
		l-8.2-0.2c-1.6,0-2.9-0.6-4.1-1.9c-0.4-0.5-0.8-1.2-1.2-1.9c-0.2-0.4-0.4-0.8-0.5-1.2c-0.9-2-1.3-4.4-1.3-7.1
		c0-3.2,0.6-5.8,1.7-7.9c1.3-2.4,3.1-3.6,5.4-3.6h18.7v-8.8L307.3,39.6L307.3,39.6z"/>
	<path class="st0" d="M287.9,69.2c-0.2-0.7-0.4-1.5-0.7-2.2c-2-6.4-3.6-11.2-4.6-14.4c-2-5.7-3.2-8.9-3.7-9.6c-0.8-1.1-2-2-3.5-2.7
		c-1.6-0.6-3.3-0.9-5.1-0.9c-1.8,0-3.4,0.3-5,0.9c-1.6,0.6-2.8,1.5-3.6,2.7c-0.5,0.7-1.6,3.9-3.6,9.7c-1.6,4.5-3.1,9.4-4.7,14.3
		c-0.2,0.8-0.5,1.5-0.7,2.2c-0.1,0.3-0.1,0.6-0.2,0.9c-1.8,5.4-2.9,9-3.4,10.9h10l10.6-31.9c0.2-0.4,0.5-0.6,0.9-0.6
		c0.4,0,0.6,0.2,0.7,0.6l10.9,31.9h9.8c-0.9-3.1-2.1-6.8-3.4-10.9C288.1,69.8,288,69.5,287.9,69.2z"/>
	<path class="st0" d="M204.9,46.2c-1.9-3-4.3-4.9-7.1-5.9c-1.4-0.5-2.8-0.7-4.4-0.7h-13.6c-1.5,0-3,0.3-4.4,0.7c-2.8,1-5.1,3-7,5.9
		c-2.6,4-3.9,8.8-3.9,14.4c0,2.2,0.2,4.4,0.6,6.4c0.2,1.1,0.6,2.1,0.9,3.1c0.6,1.6,1.4,3.1,2.3,4.5c2.8,4.3,6.5,6.4,11.4,6.4h13.6
		c4.9,0,8.8-2.1,11.5-6.4c0.9-1.4,1.7-2.9,2.3-4.5c0.4-1,0.7-2,0.9-3.1c0.4-2,0.6-4.1,0.6-6.3C208.8,55.1,207.5,50.2,204.9,46.2z
		 M197.2,52c1.1,2.2,1.7,4.8,1.7,7.9c0,2.7-0.4,5.1-1.2,7.1c-0.2,0.4-0.4,0.8-0.6,1.2c-0.3,0.7-0.8,1.4-1.2,1.9
		c-1.1,1.2-2.5,1.9-4.1,1.9h-10.4c-1.6,0-2.9-0.6-4.1-1.9c-0.4-0.5-0.8-1.2-1.2-1.9c-0.2-0.4-0.4-0.8-0.5-1.2
		c-0.8-2-1.2-4.4-1.2-7.1c0-3.2,0.6-5.8,1.7-7.9c1.3-2.4,3.1-3.6,5.4-3.6h10.4C194.2,48.4,195.9,49.6,197.2,52z"/>
	<path class="st0" d="M222.7,40.3c-1.6,0.5-2.9,1.2-4.1,2.2c-2,1.8-3.5,4.3-4.4,7.5c-0.8,2.7-1.2,6-1.2,9.9v21h9.2V64.7H248v-8.9
		h-25.7c0.2-1.7,0.4-2.9,0.7-3.7c0.9-2.4,2.5-3.7,4.8-3.7H248v-8.8h-20.2C225.9,39.6,224.2,39.8,222.7,40.3z"/>
	<path class="st0" d="M158.6,43.5c-1.1-1.5-2.6-2.5-4.2-3.2c-1.2-0.5-2.6-0.7-4.1-0.7h-23.6v8.8h22c1,0,1.8,0.4,2.5,1.2
		c0.5,0.7,0.7,1.6,0.7,2.6c0,0.9-0.3,1.8-0.8,2.5c-0.5,0.7-1.4,1.1-2.4,1.1h-11.2c-3.7,0-6.5,1.1-8.4,3.5c-1.6,2-2.4,4.6-2.4,7.7
		c0,0.1,0,0.2,0,0.3v13.8h9V70.7l26,10.3v-9.8l-17.2-6.6h5.7c3.5,0,6.2-1.3,8.3-3.9c1.9-2.4,2.9-5.2,2.9-8.6
		C161.5,48.7,160.5,45.8,158.6,43.5z"/>
	<path class="st0" d="M116.7,40.3c-1.3-0.5-2.7-0.7-4.2-0.7H89v8.8h22c1,0,1.8,0.4,2.4,1.2c0.5,0.7,0.8,1.6,0.8,2.6
		c0,0.9-0.3,1.8-0.8,2.5c-0.6,0.7-1.4,1.1-2.4,1.1H99.8c-3.7,0-6.4,1.1-8.3,3.5c-1.6,2-2.4,4.6-2.4,7.7c0,0.1,0,0.2,0,0.3
		c0,0.9,0,1.9,0,2.9c0,1.1,0,2.3,0,3.4c0,1.9,0,3.5,0,4.7c0,1.2,0,2.1,0,2.9h9v-8.8c0-0.2-0.1-0.3-0.1-0.4c0-0.1-0.1-0.4-0.1-1
		c0-0.3,0.1-0.5,0.1-0.7c0.1-1.2,0.4-2.3,0.9-3.1V67c1-1.5,2.6-2.3,4.8-2.3h8.8c3.5,0,6.3-1.3,8.4-3.9c1.9-2.4,2.9-5.2,2.9-8.6
		c0-3.4-1-6.3-2.9-8.7C119.8,42,118.4,40.9,116.7,40.3z"/>
	<g>
		<path class="st0" d="M78.1,41.2L78.1,41.2c-1.2-1.1-2.8-1.7-4.6-1.7l-34.2-0.1v4.7l34.2,0.1c0.6,0,1.1,0.2,1.5,0.5l0,0
			c0.5,0.5,0.7,1,0.7,1.7c0,0.2-0.1,0.4-0.1,0.6c-0.1,0.4-0.3,0.7-0.6,1c-0.5,0.4-1,0.6-1.6,0.7l-34-0.1c-1.8-0.1-3.4,0.6-4.7,1.9
			h-0.1c-1.5,1.4-2.2,3.1-2.2,5c0,2.2,0.8,3.9,2.2,5.2l0,0c1.3,1.1,2.8,1.7,4.6,1.7l34.2,0.1c0.6,0,1.1,0.2,1.5,0.6l0,0
			c0.5,0.4,0.6,1,0.6,1.7c0,0.3,0,0.4-0.1,0.6c-0.1,0.4-0.3,0.8-0.6,1c-0.5,0.4-1,0.7-1.6,0.7l-34-0.1c-1.8,0-3.3,0.6-4.7,1.9h-0.1
			c-1.5,1.4-2.2,3.1-2.2,5.1c0,2.1,0.7,3.8,2.1,5.1l0.1,0.1c1.2,1.1,2.8,1.7,4.6,1.7h34.2v-4.7H39.2c-0.6,0-1.1-0.2-1.5-0.6h-0.1
			c-0.4-0.4-0.6-1-0.6-1.7c0-0.7,0.3-1.2,0.7-1.7c0.4-0.4,0.9-0.6,1.6-0.7l34,0.1c1.7,0.1,3.3-0.6,4.7-1.9l0,0
			c1.4-1.3,2.1-2.8,2.2-4.5v-0.6c0-2.1-0.7-3.8-2.1-5.1L78,59.6c-1.2-1.1-2.8-1.7-4.6-1.7l-34.2-0.1c-0.6,0-1.1-0.2-1.5-0.5h-0.1
			c-0.4-0.4-0.7-1-0.7-1.7c0.1-0.6,0.3-1.2,0.8-1.6c0.5-0.5,1-0.7,1.6-0.7l34,0.1c1.7,0,3.3-0.6,4.7-1.9l0,0
			c1.3-1.2,2.1-2.8,2.2-4.5c0-0.2,0-0.4,0-0.6C80.3,44.2,79.6,42.5,78.1,41.2z"/>
		<path class="st1" d="M32.2,44.2h4.7v-4.7h-4.7C32.2,39.5,32.2,44.2,32.2,44.2z"/>
		<path class="st1" d="M80.3,76.3h-4.7V81h4.7V76.3z"/>
	</g>
</g>
</svg>
