<svg xmlns="http://www.w3.org/2000/svg"
  xmlns:xlink="http://www.w3.org/1999/xlink" version="1.1" x="0px" y="0px" viewBox="0 -5.801 117.387 75.56" enable-background="new 0 -5.801 117.387 60.448" xml:space="preserve">
  <polygon fill="#000000" points="9.18,21.727 9.15,53.857 14.832,53.857 14.872,17.546 35.551,2.35 56.324,17.613 56.355,53.857   62.039,53.857 61.998,21.78 67.742,26.003 71.107,21.424 35.551,-4.703 0,21.424 3.364,26.003 "/>
  <circle cx="99.797" cy="-0.246" r="4.43"/>
  <path d="M102.655,22.101L102.655,22.101l5.693,4.322c0.387,0.293,0.845,0.437,1.294,0.437c0.647,0,1.285-0.291,1.708-0.848  c0.714-0.941,0.531-2.284-0.41-3l-8.285-6.292V22.101z"/>
  <path d="M95.386,31.192c-1.45-1.002-2.465-1.705-2.997-2.52l-8.228,21.396c-0.544,1.376,0.128,2.932,1.503,3.476  c0.324,0.129,0.656,0.188,0.985,0.188c1.066,0,2.074-0.642,2.49-1.69l7.649-19.928l-0.193-0.125L95.386,31.192z"/>
  <path d="M111.608,35.618c-0.146-0.598-0.541-1.164-1.036-1.525l-8.987-7V9.51c0.048-2.127-0.668-3.922-3.475-4.303  c-0.133-0.018-0.267-0.026-0.399-0.026c-1.426,0-2.995,0.96-4.039,2.079l-7.47,7.388c-0.396,0.397-0.636,0.961-0.636,1.522v8.816  c0,1.184,0.958,2.143,2.142,2.143c1.182,0,2.141-0.959,2.141-2.143v-7.921l3.17-3.135l0.05,13.659  c0.195,0.867,1.334,1.621,3.159,2.883l1.86,1.248l8.562,6.148l3.462,13.835c0.305,1.217,1.396,2.029,2.596,2.029  c0.216,0,0.435-0.026,0.65-0.081c1.435-0.357,2.307-1.81,1.949-3.247L111.608,35.618z"/>
  <path d="M75.708-4.038c-0.781-0.78-2.047-0.781-2.828,0s-0.781,2.047,0,2.829l3.685,3.683H66.017c-1.104,0-2,0.896-2,2s0.896,2,2,2  h10.547l-3.685,3.685c-0.781,0.781-0.781,2.047,0,2.828c0.391,0.391,0.902,0.586,1.414,0.586s1.023-0.195,1.414-0.586l7.099-7.098  c0.75-0.758,0.785-2.078,0.001-2.83L75.708-4.038z"/>
</svg>