<svg xmlns="http://www.w3.org/2000/svg" viewBox="0 0 1012.3 1010">
  <defs/>
  <path d="M915.5 1001H96.8c-47.8 0-86.7-38.9-86.7-86.7V95.7C10.1 47.9 49 9 96.8 9h818.7c47.8 0 86.7 38.9 86.7 86.7v818.7c-.1 47.7-38.9 86.6-86.7 86.6zM96.8 21c-41.2 0-74.7 33.5-74.7 74.7v818.7c0 41.2 33.5 74.7 74.7 74.7h818.7c41.2 0 74.7-33.5 74.7-74.7V95.7c0-41.2-33.5-74.7-74.7-74.7H96.8z"/>
  <path d="M862.2 887H150.1c-14.3 0-26-11.7-26-26V149c0-14.3 11.6-26 26-26h712.1c14.3 0 26 11.6 26 26v712c-.1 14.4-11.7 26-26 26zM150.1 129c-11 0-20 9-20 20v712c0 11 9 20 20 20h712.1c11 0 20-9 20-20V149c0-11-9-20-20-20H150.1z"/>
  <path d="M752.3 655.2h-483c-7.5 0-13.6-6.1-13.6-13.6V359c0-7.5 6.1-13.6 13.6-13.6h483c7.5 0 13.6 6.1 13.6 13.6v282.6c0 7.5-6.1 13.6-13.6 13.6zM269.4 351.4c-4.2 0-7.6 3.4-7.6 7.6v282.6c0 4.2 3.4 7.6 7.6 7.6h483c4.2 0 7.6-3.4 7.6-7.6V359c0-4.2-3.4-7.6-7.6-7.6h-483z"/>
  <path d="M400.7 497.6c5 4.3 7.6 6.8 7.5 7.4l-9 50.8c-.2.6-3.6 3.1-10.2 7.4-5-4.3-7.6-6.8-7.5-7.4l9-50.8c.2-.6 3.6-3 10.2-7.4zm1 61.4h56.7c.7.1 3 2.7 6.9 7.9-5.7 5.2-9 7.8-9.7 7.9h-56.7c-.7-.1-3-2.7-6.9-7.9 5.7-5.2 9-7.8 9.7-7.9zm12.2-72.5h57.8c2.1 2.2 4.2 4.8 6.3 7.9-3.2 3.1-6.2 5.7-9.1 7.9h-57.8c-2.1-2.2-4.2-4.8-6.3-7.9 3.2-3 6.2-5.7 9.1-7.9zm13.4-72.4H484c.7.1 3 2.7 6.9 7.9-5.7 5.2-9 7.8-9.7 7.9h-56.7c-.7-.1-3-2.7-6.9-7.9 5.7-5.2 9-7.8 9.7-7.9zm66.5 11.1c5 4.3 7.6 6.8 7.5 7.4l-9 50.8c-.2.6-3.6 3.1-10.2 7.4-5-4.3-7.6-6.8-7.5-7.4l9-50.8c.2-.6 3.6-3.1 10.2-7.4zM590.2 500.8c.5 0 3 2.6 7.4 7.9l-11.7 66.1c-.5 0-5.5-5.3-14.9-15.9l8.9-50.2c.1-.4 3.5-3 10.3-7.9zm23.1-80.9L601.6 486c-.1.4-3.5 3.1-10.3 7.9-.5 0-3-2.6-7.5-7.9l9-50.8 20.5-15.3zM342.2 780.8h-9.6l32-25.7 30.4 25.3-41.9.4 6.7-6.4h18.6l-13.8-11.5zM673.3 755.1h9.6l-32 25.7-30.4-25.3 41.9-.4-6.7 6.4h-18.6l13.8 11.5z"/>
  <g>
    <path d="M504.3 782.8l-13.6-13.6 17.4-17.4 17.4 17.4-13.7 13.6v8.5l22.2-22.1-25.9-25.9-25.9 25.9 22.1 22.1z"/>
  </g>
</svg>